<?xml version="1.0" encoding="utf-8"?>
<!-- Generator: Adobe Illustrator 25.0.1, SVG Export Plug-In . SVG Version: 6.00 Build 0)  -->
<svg version="1.1" id="Layer_1" xmlns="http://www.w3.org/2000/svg" xmlns:xlink="http://www.w3.org/1999/xlink" x="0px" y="0px"
	 width="147px" height="39.3px" viewBox="0 0 147 39.3" style="enable-background:new 0 0 147 39.3;" xml:space="preserve">
<style type="text/css">
	.st0{enable-background:new    ;}
	.st1{fill:#FFFFFF;}
</style>
<g class="st0">
	<path class="st1" d="M51.6,10.9l3.3-8.6h1.2l3.5,8.6h-1.3l-1-2.6h-3.6l-0.9,2.6H51.6z M54.1,7.4H57L56.1,5
		c-0.3-0.7-0.5-1.3-0.6-1.8c-0.1,0.6-0.3,1.1-0.5,1.6L54.1,7.4z"/>
	<path class="st1" d="M60.2,11.4l1,0.2c0,0.3,0.2,0.5,0.4,0.7c0.3,0.2,0.6,0.3,1.1,0.3c0.5,0,0.9-0.1,1.1-0.3s0.4-0.5,0.5-0.8
		c0.1-0.2,0.1-0.7,0.1-1.4c-0.5,0.5-1,0.8-1.7,0.8c-0.9,0-1.5-0.3-2-0.9S60,8.6,60,7.7c0-0.6,0.1-1.1,0.3-1.6s0.5-0.9,0.9-1.2
		s0.9-0.4,1.4-0.4c0.7,0,1.3,0.3,1.8,0.9V4.7h1V10c0,1-0.1,1.7-0.3,2.1s-0.5,0.7-0.9,1s-1,0.4-1.6,0.4c-0.7,0-1.3-0.2-1.8-0.5
		S60.2,12.1,60.2,11.4z M61.1,7.7c0,0.8,0.2,1.4,0.5,1.8s0.7,0.6,1.2,0.6c0.5,0,0.9-0.2,1.2-0.6s0.5-1,0.5-1.8
		c0-0.8-0.2-1.3-0.5-1.7s-0.7-0.6-1.2-0.6c-0.5,0-0.9,0.2-1.2,0.6S61.1,6.9,61.1,7.7z"/>
	<path class="st1" d="M71.3,8.9L72.4,9c-0.2,0.6-0.5,1.1-1,1.5S70.4,11,69.7,11c-0.9,0-1.6-0.3-2.2-0.8s-0.8-1.3-0.8-2.4
		c0-1,0.3-1.9,0.8-2.4s1.2-0.9,2.1-0.9c0.8,0,1.5,0.3,2,0.8s0.8,1.4,0.8,2.4c0,0.1,0,0.2,0,0.3h-4.6c0,0.7,0.2,1.2,0.6,1.6
		s0.8,0.5,1.3,0.5c0.4,0,0.7-0.1,1-0.3S71.2,9.3,71.3,8.9z M67.9,7.2h3.5c0-0.5-0.2-0.9-0.4-1.2c-0.3-0.4-0.8-0.6-1.3-0.6
		c-0.5,0-0.9,0.2-1.2,0.5S67.9,6.6,67.9,7.2z"/>
	<path class="st1" d="M73.7,10.9V4.7h0.9v0.9c0.5-0.7,1.1-1,2-1c0.4,0,0.7,0.1,1,0.2s0.5,0.3,0.7,0.5s0.3,0.5,0.3,0.8
		c0,0.2,0.1,0.5,0.1,1v3.8h-1.1V7.1c0-0.4,0-0.8-0.1-1s-0.2-0.4-0.4-0.5s-0.5-0.2-0.7-0.2c-0.4,0-0.8,0.1-1.2,0.4s-0.5,0.8-0.5,1.6
		v3.4H73.7z"/>
	<path class="st1" d="M84.4,10.9v-0.8c-0.4,0.6-1,0.9-1.7,0.9c-0.5,0-1-0.1-1.4-0.4s-0.7-0.7-1-1.1S80,8.4,80,7.8
		c0-0.6,0.1-1.2,0.3-1.7s0.5-0.9,0.9-1.2s0.9-0.4,1.4-0.4c0.4,0,0.7,0.1,1,0.2s0.5,0.4,0.7,0.6V2.3h1v8.6H84.4z M81.1,7.8
		c0,0.8,0.2,1.4,0.5,1.8s0.7,0.6,1.2,0.6c0.5,0,0.9-0.2,1.2-0.6s0.5-1,0.5-1.7C84.5,7,84.3,6.4,84,6s-0.7-0.6-1.2-0.6
		c-0.5,0-0.9,0.2-1.2,0.6S81.1,6.9,81.1,7.8z"/>
	<path class="st1" d="M91.1,10.1c-0.4,0.3-0.8,0.6-1.1,0.7S89.3,11,88.9,11c-0.7,0-1.2-0.2-1.6-0.5s-0.6-0.8-0.6-1.3
		c0-0.3,0.1-0.6,0.2-0.8s0.3-0.5,0.5-0.6s0.5-0.3,0.8-0.3c0.2-0.1,0.5-0.1,0.9-0.2c0.9-0.1,1.5-0.2,1.9-0.4c0-0.1,0-0.2,0-0.3
		c0-0.4-0.1-0.7-0.3-0.9c-0.3-0.2-0.7-0.4-1.2-0.4c-0.5,0-0.9,0.1-1.1,0.3s-0.4,0.5-0.5,0.9l-1-0.1C87,6,87.2,5.6,87.4,5.4
		s0.5-0.5,0.9-0.6s0.9-0.2,1.4-0.2c0.5,0,1,0.1,1.3,0.2s0.6,0.3,0.7,0.5s0.3,0.4,0.3,0.7c0,0.2,0.1,0.5,0.1,1v1.4c0,1,0,1.6,0.1,1.9
		s0.1,0.5,0.3,0.7h-1.1C91.2,10.7,91.2,10.4,91.1,10.1z M91.1,7.8c-0.4,0.2-1,0.3-1.7,0.4c-0.4,0.1-0.7,0.1-0.9,0.2S88.1,8.6,88,8.7
		S87.9,9,87.9,9.2c0,0.3,0.1,0.5,0.3,0.7s0.5,0.3,0.9,0.3c0.4,0,0.8-0.1,1.1-0.3s0.5-0.4,0.7-0.7C91,9,91.1,8.6,91.1,8.1V7.8z"/>
	<path class="st1" d="M99.4,9.9l0.2,0.9C99.2,10.9,99,11,98.7,11c-0.4,0-0.7-0.1-0.9-0.2s-0.4-0.3-0.4-0.5s-0.1-0.6-0.1-1.2V5.5
		h-0.8V4.7h0.8V3.1l1-0.6v2.2h1.1v0.8h-1.1v3.6c0,0.3,0,0.5,0.1,0.6s0.1,0.2,0.2,0.2s0.2,0.1,0.4,0.1C99,10,99.2,10,99.4,9.9z"/>
	<path class="st1" d="M104.5,10.9V10c-0.5,0.7-1.1,1.1-2,1.1c-0.4,0-0.7-0.1-1-0.2s-0.6-0.3-0.7-0.5s-0.3-0.5-0.3-0.8
		c0-0.2-0.1-0.5-0.1-1V4.7h1.1v3.5c0,0.6,0,0.9,0.1,1.1c0.1,0.3,0.2,0.5,0.4,0.7s0.5,0.2,0.8,0.2s0.6-0.1,0.9-0.2s0.5-0.4,0.6-0.7
		s0.2-0.7,0.2-1.2V4.7h1.1v6.2H104.5z"/>
	<path class="st1" d="M114.5,8.6l1,0.1c-0.1,0.7-0.4,1.3-0.9,1.7s-1,0.6-1.7,0.6c-0.9,0-1.5-0.3-2.1-0.8s-0.8-1.4-0.8-2.4
		c0-0.7,0.1-1.3,0.3-1.8s0.6-0.9,1-1.1s1-0.4,1.5-0.4c0.7,0,1.2,0.2,1.7,0.5s0.7,0.8,0.8,1.5l-1,0.2c-0.1-0.4-0.3-0.7-0.5-0.9
		s-0.5-0.3-0.9-0.3c-0.5,0-1,0.2-1.3,0.6s-0.5,1-0.5,1.8c0,0.8,0.2,1.4,0.5,1.8s0.7,0.6,1.3,0.6c0.4,0,0.8-0.1,1-0.4
		S114.4,9.1,114.5,8.6z"/>
	<path class="st1" d="M116.4,3.5V2.3h1.1v1.2H116.4z M116.4,10.9V4.7h1.1v6.2H116.4z"/>
	<path class="st1" d="M121.4,9.9l0.2,0.9c-0.3,0.1-0.6,0.1-0.8,0.1c-0.4,0-0.7-0.1-0.9-0.2s-0.4-0.3-0.4-0.5s-0.1-0.6-0.1-1.2V5.5
		h-0.8V4.7h0.8V3.1l1-0.6v2.2h1.1v0.8h-1.1v3.6c0,0.3,0,0.5,0.1,0.6s0.1,0.2,0.2,0.2s0.2,0.1,0.4,0.1C121.1,10,121.2,10,121.4,9.9z"
		/>
	<path class="st1" d="M126.5,10.1c-0.4,0.3-0.8,0.6-1.1,0.7s-0.7,0.2-1.2,0.2c-0.7,0-1.2-0.2-1.6-0.5s-0.6-0.8-0.6-1.3
		c0-0.3,0.1-0.6,0.2-0.8s0.3-0.5,0.5-0.6s0.5-0.3,0.8-0.3c0.2-0.1,0.5-0.1,0.9-0.2c0.9-0.1,1.5-0.2,1.9-0.4c0-0.1,0-0.2,0-0.3
		c0-0.4-0.1-0.7-0.3-0.9c-0.3-0.2-0.7-0.4-1.2-0.4c-0.5,0-0.9,0.1-1.1,0.3s-0.4,0.5-0.5,0.9l-1-0.1c0.1-0.4,0.2-0.8,0.5-1.1
		s0.5-0.5,0.9-0.6s0.9-0.2,1.4-0.2c0.5,0,1,0.1,1.3,0.2s0.6,0.3,0.7,0.5s0.3,0.4,0.3,0.7c0,0.2,0.1,0.5,0.1,1v1.4c0,1,0,1.6,0.1,1.9
		s0.1,0.5,0.3,0.7h-1.1C126.6,10.7,126.5,10.4,126.5,10.1z M126.4,7.8c-0.4,0.2-1,0.3-1.7,0.4c-0.4,0.1-0.7,0.1-0.9,0.2
		s-0.3,0.2-0.4,0.3s-0.1,0.3-0.1,0.5c0,0.3,0.1,0.5,0.3,0.7s0.5,0.3,0.9,0.3c0.4,0,0.8-0.1,1.1-0.3s0.5-0.4,0.7-0.7
		c0.1-0.2,0.2-0.6,0.2-1.1V7.8z"/>
</g>
<g class="st0">
	<path class="st1" d="M55.9,32.9l-4.3-12.2h2.7l3.1,9l3-9h2.6l-4.4,12.2H55.9z"/>
	<path class="st1" d="M64,23l1.1-2.5h2.6L65.5,23H64z M64.2,32.9v-8.8h2.3v8.8H64.2z"/>
	<path class="st1" d="M70.6,26.8l-2.1-0.4c0.2-0.9,0.6-1.5,1.2-1.9s1.4-0.6,2.6-0.6c1,0,1.8,0.1,2.3,0.4c0.5,0.2,0.9,0.6,1.1,0.9
		c0.2,0.4,0.3,1.1,0.3,2.1l0,2.7c0,0.8,0,1.3,0.1,1.7c0.1,0.4,0.2,0.8,0.4,1.2h-2.3c-0.1-0.2-0.1-0.4-0.2-0.7c0-0.1-0.1-0.2-0.1-0.3
		c-0.4,0.4-0.8,0.7-1.3,0.9c-0.5,0.2-0.9,0.3-1.5,0.3c-0.9,0-1.6-0.2-2.1-0.7c-0.5-0.5-0.8-1.1-0.8-1.9c0-0.5,0.1-0.9,0.4-1.3
		c0.2-0.4,0.6-0.7,1-0.9c0.4-0.2,1-0.4,1.9-0.5c1.1-0.2,1.8-0.4,2.3-0.6v-0.2c0-0.4-0.1-0.8-0.3-1c-0.2-0.2-0.6-0.3-1.3-0.3
		c-0.4,0-0.7,0.1-1,0.2S70.8,26.4,70.6,26.8z M73.7,28.7c-0.3,0.1-0.8,0.2-1.4,0.4c-0.6,0.1-1.1,0.3-1.3,0.4
		c-0.3,0.2-0.5,0.5-0.5,0.8c0,0.3,0.1,0.6,0.4,0.8c0.2,0.2,0.6,0.4,0.9,0.4c0.4,0,0.8-0.1,1.2-0.4c0.3-0.2,0.5-0.5,0.6-0.8
		c0.1-0.2,0.1-0.6,0.1-1.1V28.7z"/>
	<path class="st1" d="M83.1,32.9V20.7h9v2.1h-6.6v2.7h6.1v2h-6.1v3.3h6.8v2.1H83.1z"/>
	<path class="st1" d="M94.2,24.1h2.2v1.2c0.8-0.9,1.7-1.4,2.7-1.4c0.6,0,1.1,0.1,1.5,0.3s0.8,0.6,1,1.1c0.4-0.5,0.8-0.8,1.3-1.1
		s0.9-0.3,1.4-0.3c0.6,0,1.2,0.1,1.6,0.4s0.8,0.6,1,1.2c0.2,0.4,0.2,1,0.2,1.8v5.6h-2.3v-5c0-0.9-0.1-1.4-0.2-1.7
		c-0.2-0.3-0.5-0.5-1-0.5c-0.3,0-0.6,0.1-0.9,0.3c-0.3,0.2-0.5,0.5-0.6,0.9c-0.1,0.4-0.2,1-0.2,1.8v4.2h-2.3v-4.8
		c0-0.9,0-1.4-0.1-1.7S99.2,26,99,25.8c-0.2-0.1-0.4-0.2-0.7-0.2c-0.4,0-0.7,0.1-1,0.3c-0.3,0.2-0.5,0.5-0.6,0.8
		c-0.1,0.4-0.2,1-0.2,1.8v4.3h-2.3V24.1z"/>
	<path class="st1" d="M111.2,26.8l-2.1-0.4c0.2-0.9,0.6-1.5,1.2-1.9s1.4-0.6,2.6-0.6c1,0,1.8,0.1,2.3,0.4c0.5,0.2,0.9,0.6,1.1,0.9
		c0.2,0.4,0.3,1.1,0.3,2.1l0,2.7c0,0.8,0,1.3,0.1,1.7c0.1,0.4,0.2,0.8,0.4,1.2h-2.3c-0.1-0.2-0.1-0.4-0.2-0.7c0-0.1-0.1-0.2-0.1-0.3
		c-0.4,0.4-0.8,0.7-1.3,0.9c-0.5,0.2-0.9,0.3-1.5,0.3c-0.9,0-1.6-0.2-2.1-0.7c-0.5-0.5-0.8-1.1-0.8-1.9c0-0.5,0.1-0.9,0.4-1.3
		c0.2-0.4,0.6-0.7,1-0.9c0.4-0.2,1-0.4,1.9-0.5c1.1-0.2,1.8-0.4,2.3-0.6v-0.2c0-0.4-0.1-0.8-0.3-1c-0.2-0.2-0.6-0.3-1.3-0.3
		c-0.4,0-0.7,0.1-1,0.2S111.4,26.4,111.2,26.8z M114.4,28.7c-0.3,0.1-0.8,0.2-1.4,0.4c-0.6,0.1-1.1,0.3-1.3,0.4
		c-0.3,0.2-0.5,0.5-0.5,0.8c0,0.3,0.1,0.6,0.4,0.8c0.2,0.2,0.6,0.4,0.9,0.4c0.4,0,0.8-0.1,1.2-0.4c0.3-0.2,0.5-0.5,0.6-0.8
		c0.1-0.2,0.1-0.6,0.1-1.1V28.7z"/>
	<path class="st1" d="M119,22.9v-2.2h2.3v2.2H119z M119,32.9v-8.8h2.3v8.8H119z"/>
	<path class="st1" d="M123.7,32.9V20.7h2.3v12.2H123.7z"/>
</g>
<g>
	<path id="Path_74" class="st1" d="M33.2,6H4.6C2.1,6,0,8.1,0,10.7c0,0,0,0,0,0v19.5c0,2.6,2.1,4.6,4.6,4.6h28.6
		c2.6,0,4.6-2.1,4.6-4.6V10.7C37.8,8.1,35.8,6.1,33.2,6C33.2,6,33.2,6,33.2,6z M35.7,30.2c0,1.4-1.1,2.5-2.5,2.5H4.6
		c-1.4,0-2.5-1.1-2.5-2.5V10.7c0-1.4,1.1-2.5,2.5-2.5c0,0,0,0,0,0h28.6c1.4,0,2.5,1.1,2.5,2.5l0,0V30.2L35.7,30.2z"/>
	<path id="Path_75" class="st1" d="M23.9,20.2l9.2-8.3c0.4-0.4,0.5-1.1,0.1-1.5c-0.4-0.4-1.1-0.5-1.5-0.1L18.9,21.8l-2.5-2.2
		c0,0,0,0,0,0c-0.1-0.1-0.1-0.1-0.2-0.1L6.1,10.3C5.7,9.9,5,10,4.6,10.4c-0.4,0.4-0.4,1.1,0.1,1.5l9.4,8.4L4.8,29
		c-0.4,0.4-0.4,1.1-0.1,1.5c0,0,0,0,0,0c0.2,0.2,0.5,0.3,0.8,0.3c0.3,0,0.5-0.1,0.7-0.3l9.5-8.8l2.6,2.3c0.4,0.4,1,0.4,1.4,0
		l2.6-2.4l9.4,8.9c0.4,0.4,1.1,0.4,1.5,0c0,0,0,0,0,0c0.4-0.4,0.4-1.1,0-1.5c0,0,0,0,0,0L23.9,20.2z"/>
</g>
</svg>
