<?xml version="1.0" encoding="utf-8"?>
<!-- Generator: Adobe Illustrator 25.0.1, SVG Export Plug-In . SVG Version: 6.00 Build 0)  -->
<svg version="1.1" id="Capa_1" xmlns="http://www.w3.org/2000/svg" xmlns:xlink="http://www.w3.org/1999/xlink" x="0px" y="0px"
	 width="98.5px" height="98.5px" viewBox="0 0 98.5 98.5" style="enable-background:new 0 0 98.5 98.5;" xml:space="preserve">
<style type="text/css">
	.st0{fill:#FFFFFF;}
</style>
<g>
	<path class="st0" d="M97.2,45.8c-0.9-1-21.5-24.9-48-24.9c-26.4,0-47.1,23.9-48,24.9c-1.7,2-1.7,4.9,0,6.9c0.9,1,21.5,24.9,48,24.9
		c26.4,0,47.1-23.9,48-24.9C98.9,50.7,98.9,47.8,97.2,45.8z M57.3,35.2c1.8-1,4.3,0.1,5.5,2.5c1.3,2.3,0.9,5-0.9,6
		c-1.8,1-4.3-0.1-5.5-2.5C55.1,38.9,55.5,36.2,57.3,35.2z M49.2,69c-18.5,0-34-14.2-39.4-19.7c3.6-3.8,11.9-11.4,22.6-16
		c-2.1,3.2-3.3,6.9-3.3,11c0,11.1,9,20.1,20.1,20.1s20.1-9,20.1-20.1c0-4.1-1.2-7.9-3.3-11c10.7,4.6,18.9,12.3,22.6,16
		C83.2,54.8,67.7,69,49.2,69z"/>
</g>
</svg>
