<?xml version="1.0" encoding="utf-8"?>
<!-- Generator: Adobe Illustrator 25.0.1, SVG Export Plug-In . SVG Version: 6.00 Build 0)  -->
<svg version="1.1" id="Capa_1" xmlns="http://www.w3.org/2000/svg" xmlns:xlink="http://www.w3.org/1999/xlink" x="0px" y="0px"
	 width="304.2px" height="304.2px" viewBox="0 0 304.2 304.2" style="enable-background:new 0 0 304.2 304.2;" xml:space="preserve"
	>
<style type="text/css">
	.st0{fill:#FFFFFF;}
</style>
<g>
	<g>
		<path class="st0" d="M0.1,129.4c-0.1,5.1,1.8,7.2,3.3,8.8c0.5,0.5,0.9,1,1.2,1.5c0.7,1.2,1.2,2.7,1.5,4.4
			c6.2,37.7,7.6,42.8,23.4,51.1c7.5,4,23.1,6.6,38.6,6.6c12.1,0,29.6-1.6,44.2-9.2c21.2-11.1,29.1-49.3,29.5-51.2
			c0-0.2,0.6-4.8,10.3-4.8h0l0.6,0c9.2,0,9.8,4.6,9.9,5.1c0.3,1.6,8.2,39.8,29.4,50.9c14.6,7.6,32.1,9.2,44.2,9.2
			c15.5,0,31-2.7,38.6-6.6c15.8-8.3,17.2-13.4,23.4-51.1c0.3-1.7,0.8-3.2,1.5-4.4c0.3-0.5,0.7-1,1.2-1.5c1.5-1.6,3.4-3.7,3.3-8.8
			c0-0.9,0-2.4,0.1-4.1c0.1-2.6,0.1-5.4,0-7c-0.4-7.6-7.2-10.7-10.6-11.3c-21.7-4.5-47.7-5.7-75.2-3.8l-1.4,0.1
			c-16.8,1.2-26,1.8-37,6.8c-2.6,1.1-5.2,2.4-7.5,3.6c-4.1,2.1-10.1,4.4-13.3,5.1c-1.3,0.3-2.6,0.6-3.8,0.8c-1.7,0.3-4.9,0.3-6.6,0
			c-1.2-0.2-2.5-0.5-3.8-0.8c-3.2-0.7-9.2-3-13.3-5.1c-2.3-1.2-4.9-2.5-7.5-3.6c-11-4.9-20.2-5.6-37-6.8l-1.4-0.1
			c-27.5-2-53.6-0.7-75.1,3.8c-3.5,0.6-10.2,3.7-10.7,11.3c-0.1,1.6,0,4.4,0,7C0.1,127,0.1,128.5,0.1,129.4z M297.9,120v5.6l-7-2.8
			L297.9,120z M176.2,128.1c1.1-2.6,7.7-11.4,49.2-13.8c7.3-0.4,13.4-0.6,18.9-0.6c24.5,0,32.2,4.4,36.9,11.5
			c2.8,4.2,4.7,13.1,4.7,18.7c0.1,12.3-2.4,34.1-19.4,42.4c-7.8,3.8-19.5,6-31.3,6c-22.6,0-40.7-7.7-48.4-20.6
			C170.5,144.6,176,128.6,176.2,128.1z M23.1,125.1c4.6-7.1,12.4-11.5,36.9-11.5c5.4,0,11.6,0.2,18.9,0.6
			c41.5,2.4,48.1,11.2,49.3,14.1c0.1,0.1,5.5,16.2-10.6,43.3c-7.7,12.9-25.8,20.6-48.4,20.6c-11.8,0-23.5-2.3-31.3-6
			c-17-8.3-19.5-30.1-19.4-42.4C18.4,138.3,20.3,129.4,23.1,125.1z M6.3,120l7,2.8l-7,2.8V120z"/>
	</g>
</g>
</svg>
