<?xml version="1.0" encoding="utf-8"?>
<!-- Generator: Adobe Illustrator 25.0.1, SVG Export Plug-In . SVG Version: 6.00 Build 0)  -->
<svg version="1.1" id="bold" xmlns="http://www.w3.org/2000/svg" xmlns:xlink="http://www.w3.org/1999/xlink" x="0px" y="0px"
	 width="512px" height="512px" viewBox="0 0 512 512" style="enable-background:new 0 0 512 512;" xml:space="preserve">
<style type="text/css">
	.st0{fill:#FFFFFF;}
</style>
<path class="st0" d="M426.7,170.7c-23.5,0-42.7-19.1-42.7-42.7s19.1-42.7,42.7-42.7c23.5,0,42.7,19.1,42.7,42.7
	S450.2,170.7,426.7,170.7z"/>
<circle class="st0" cx="352" cy="32" r="32"/>
<path class="st0" d="M441.7,251.6L303.1,112.9c-8.3-8.3-21.8-8.3-30.2,0c-8.3,8.3-8.3,21.8,0,30.2l3,3L70.2,351.8
	c-17.7,17.7-27.5,41.3-27.5,66.4c0,51.8,42.1,93.8,93.8,93.8c25.1,0,48.6-9.8,66.4-27.5l205.7-205.7l3,3c8.3,8.3,21.8,8.3,30.2,0
	C450.1,273.4,450.1,259.9,441.7,251.6L441.7,251.6z M128,448c-11.8,0-21.3-9.6-21.3-21.3s9.6-21.3,21.3-21.3s21.3,9.6,21.3,21.3
	S139.8,448,128,448z M213.3,384c-11.8,0-21.3-9.6-21.3-21.3s9.6-21.3,21.3-21.3s21.3,9.6,21.3,21.3S225.1,384,213.3,384z
	 M319.4,307.6c-8.5,2.6-18.3,2-25.9-2.2l-16.8-9.5c-19.1-10.5-43.7-10.5-63,0.1l-16.5,9.3c-6.9,3.8-15.6,4.8-23.4,3.1L306,176.2
	l72.4,72.4L319.4,307.6z"/>
<path class="st0" d="M276.5,249.8c-8.7,8.3-21.6,8.3-30.3,0l-23.3-23.3l30.3-30.3l23.3,23.3C284.8,227.8,284.8,241.5,276.5,249.8z"
	/>
</svg>
