<?xml version="1.0" encoding="utf-8"?>
<!-- Generator: Adobe Illustrator 25.0.1, SVG Export Plug-In . SVG Version: 6.00 Build 0)  -->
<svg version="1.1" id="Layer_1" xmlns="http://www.w3.org/2000/svg" xmlns:xlink="http://www.w3.org/1999/xlink" x="0px" y="0px"
	 width="147px" height="39.3px" viewBox="0 0 147 39.3" style="enable-background:new 0 0 147 39.3;" xml:space="preserve">
<style type="text/css">
	.st0{fill:#FFFFFF;}
	.st1{enable-background:new    ;}
</style>
<g transform="translate(0.000000,720.000000) scale(0.100000,-0.100000)">
	<path class="st0" d="M182.4,7199.8c-32-2.1-65.7-13.6-92.2-31.6c-28.1-19-50.3-44.6-64.7-74.5c-7.9-16.4-12.8-31.8-16.2-50.8
		c-2.6-14.2-3.1-35.7-1.3-52.2c2.4-22.2,10.5-48.8,21.5-70.5l3.1-6.1l-7.3-21.8c-4-12-11.3-33.8-16.3-48.5c-5-14.8-9-27.2-9-27.8
		c0-0.5,0.8-1.3,1.7-1.7c1.5-0.6,1.7-0.8,1.4-2.7c-0.4-1.9-0.3-2,1.1-1.6c2.4,0.8,55.5,17.7,77.9,24.9c11.7,3.7,21.8,6.8,22.4,6.8
		c0.5,0,3.1-1,5.6-2.3c21.7-10.9,44.8-17.4,69.5-19.7c9.7-0.8,29.5-0.4,39.1,0.9c56.6,7.8,104.8,39.1,134.4,87.1
		c9.7,15.7,18.9,37.5,23.8,56.5c4.7,18.2,6.9,40.8,5.7,58.2c-3.2,46.3-21.1,87.4-52.3,119.6c-30.2,31.3-68.6,50.6-112.4,56.5
		C211.6,7199.6,189.4,7200.3,182.4,7199.8z M205.6,7159.3c21.2-1.7,38.6-6.4,56.9-15.4c24.9-12.2,45.7-30.5,61.1-53.7
		c11.9-17.9,19.2-37.1,22-58.1c1.4-10,1.4-30.1,0-40.3c-9.7-71.7-68.9-127-140.7-131.5c-25.3-1.5-48.9,2.6-71.9,12.7
		c-6.3,2.8-16.8,8.5-20.1,10.9c-1,0.8-2.3,1.4-2.9,1.4c-0.5,0-13.2-3.9-28-8.6s-27-8.6-27.1-8.5s3.7,11.7,8.4,25.7
		c4.7,14.1,8.5,26.2,8.5,27.2c0,0.9-1.1,3.1-2.6,5.3c-24.8,35.5-32.9,84.6-20.8,126.2c2.7,9,4.9,14.5,9.2,23.1
		c11.9,23.2,30,43.4,52.2,58.2C137.8,7152.6,172.8,7161.9,205.6,7159.3z"/>
	<path class="st0" d="M127.1,7104.5c-1.4-0.4-3.3-1.4-4.4-2c-3-1.9-11.8-11.3-14.5-15.5c-8.7-13.6-10.7-31.7-5.5-49.4
		c4-13.3,8.8-23.5,17.7-37.3c11.3-17.3,18.6-26.7,30.3-38.7c17.6-18.1,32.3-28.2,55-37.7c16.7-7,29.1-11,36-11.7
		c4.8-0.5,15.3,1.2,21.5,3.4c8.5,3.1,18.3,10,22.1,15.5c3.8,5.7,7.7,18.6,8.2,27.1l0.4,5.6l-1.8,2.1c-1.3,1.4-6.6,4.6-17.4,10.4
		c-25.6,13.8-28.9,15.1-32.9,12.9c-1-0.5-4.8-4.3-8.4-8.5c-10.6-12.3-12.8-14.4-14.5-14.4c-2.3,0-17,7.5-23.9,12.2
		c-8,5.5-13.2,9.8-19.8,16.7c-7.8,8.1-16.3,19.8-21.1,28.8l-1.1,2.1l4.3,4.7c5.6,6,7.9,9.6,10.2,15.9c2.3,6.4,2.2,8.4-1.2,17.2
		c-3,7.9-5.5,14.4-9.7,25.7c-3.4,9.3-6,13.1-9.5,14.2C143.5,7105.1,129.9,7105.4,127.1,7104.5z"/>
</g>
<g class="st1">
	<path class="st0" d="M58.6,7.9l1.1,0.3c-0.2,0.9-0.7,1.6-1.3,2.1S57.1,11,56.2,11c-0.9,0-1.7-0.2-2.3-0.6s-1-0.9-1.3-1.6
		s-0.5-1.5-0.5-2.3c0-0.9,0.2-1.7,0.5-2.3s0.8-1.2,1.5-1.5s1.3-0.5,2.1-0.5c0.9,0,1.6,0.2,2.2,0.7s1,1.1,1.2,1.8l-1.1,0.3
		c-0.2-0.6-0.5-1.1-0.9-1.4s-0.9-0.4-1.4-0.4c-0.7,0-1.2,0.2-1.7,0.5s-0.8,0.7-0.9,1.3s-0.3,1.1-0.3,1.6c0,0.7,0.1,1.4,0.3,1.9
		s0.5,1,1,1.2s0.9,0.4,1.5,0.4c0.6,0,1.2-0.2,1.6-0.6S58.5,8.6,58.6,7.9z"/>
	<path class="st0" d="M60.7,7.8c0-1.2,0.3-2,1-2.6c0.5-0.5,1.2-0.7,2-0.7c0.9,0,1.6,0.3,2.1,0.8s0.8,1.3,0.8,2.3
		c0,0.8-0.1,1.4-0.4,1.9s-0.6,0.8-1,1.1s-1,0.4-1.5,0.4c-0.9,0-1.6-0.3-2.1-0.8S60.7,8.8,60.7,7.8z M61.7,7.8c0,0.8,0.2,1.4,0.5,1.8
		s0.8,0.6,1.3,0.6c0.5,0,1-0.2,1.3-0.6s0.5-1,0.5-1.8c0-0.8-0.2-1.4-0.5-1.7s-0.8-0.6-1.3-0.6c-0.5,0-1,0.2-1.3,0.6S61.7,7,61.7,7.8
		z"/>
	<path class="st0" d="M67.7,10.9V4.7h0.9v0.9c0.5-0.7,1.1-1,2-1c0.4,0,0.7,0.1,1,0.2s0.5,0.3,0.7,0.5s0.3,0.5,0.3,0.8
		c0,0.2,0.1,0.5,0.1,1v3.8h-1.1V7.1c0-0.4,0-0.8-0.1-1s-0.2-0.4-0.4-0.5s-0.5-0.2-0.7-0.2c-0.4,0-0.8,0.1-1.2,0.4s-0.5,0.8-0.5,1.6
		v3.4H67.7z"/>
	<path class="st0" d="M76.7,9.9l0.2,0.9c-0.3,0.1-0.6,0.1-0.8,0.1c-0.4,0-0.7-0.1-0.9-0.2s-0.4-0.3-0.4-0.5s-0.1-0.6-0.1-1.2V5.5
		h-0.8V4.7h0.8V3.1l1-0.6v2.2h1.1v0.8h-1.1v3.6c0,0.3,0,0.5,0.1,0.6s0.1,0.2,0.2,0.2s0.2,0.1,0.4,0.1C76.4,10,76.5,10,76.7,9.9z"/>
	<path class="st0" d="M81.8,10.1c-0.4,0.3-0.8,0.6-1.1,0.7S79.9,11,79.5,11c-0.7,0-1.2-0.2-1.6-0.5s-0.6-0.8-0.6-1.3
		c0-0.3,0.1-0.6,0.2-0.8s0.3-0.5,0.5-0.6s0.5-0.3,0.8-0.3c0.2-0.1,0.5-0.1,0.9-0.2c0.9-0.1,1.5-0.2,1.9-0.4c0-0.1,0-0.2,0-0.3
		c0-0.4-0.1-0.7-0.3-0.9c-0.3-0.2-0.7-0.4-1.2-0.4c-0.5,0-0.9,0.1-1.1,0.3s-0.4,0.5-0.5,0.9l-1-0.1C77.6,6,77.8,5.6,78,5.4
		s0.5-0.5,0.9-0.6s0.9-0.2,1.4-0.2c0.5,0,1,0.1,1.3,0.2s0.6,0.3,0.7,0.5s0.3,0.4,0.3,0.7c0,0.2,0.1,0.5,0.1,1v1.4c0,1,0,1.6,0.1,1.9
		s0.1,0.5,0.3,0.7H82C81.9,10.7,81.8,10.4,81.8,10.1z M81.7,7.8c-0.4,0.2-1,0.3-1.7,0.4c-0.4,0.1-0.7,0.1-0.9,0.2s-0.3,0.2-0.4,0.3
		S78.5,9,78.5,9.2c0,0.3,0.1,0.5,0.3,0.7s0.5,0.3,0.9,0.3c0.4,0,0.8-0.1,1.1-0.3s0.5-0.4,0.7-0.7c0.1-0.2,0.2-0.6,0.2-1.1V7.8z
		 M79.7,3.9l0.8-1.6h1.4l-1.3,1.6H79.7z"/>
	<path class="st0" d="M88.5,8.6l1,0.1c-0.1,0.7-0.4,1.3-0.9,1.7s-1,0.6-1.7,0.6c-0.9,0-1.5-0.3-2.1-0.8s-0.8-1.4-0.8-2.4
		c0-0.7,0.1-1.3,0.3-1.8s0.6-0.9,1-1.1s1-0.4,1.5-0.4c0.7,0,1.2,0.2,1.7,0.5s0.7,0.8,0.8,1.5l-1,0.2c-0.1-0.4-0.3-0.7-0.5-0.9
		S87.3,5.4,87,5.4c-0.5,0-1,0.2-1.3,0.6s-0.5,1-0.5,1.8c0,0.8,0.2,1.4,0.5,1.8s0.7,0.6,1.3,0.6c0.4,0,0.8-0.1,1-0.4
		S88.4,9.1,88.5,8.6z"/>
	<path class="st0" d="M92.7,9.9l0.2,0.9c-0.3,0.1-0.6,0.1-0.8,0.1c-0.4,0-0.7-0.1-0.9-0.2s-0.4-0.3-0.4-0.5s-0.1-0.6-0.1-1.2V5.5
		h-0.8V4.7h0.8V3.1l1-0.6v2.2h1.1v0.8h-1.1v3.6c0,0.3,0,0.5,0.1,0.6s0.1,0.2,0.2,0.2s0.2,0.1,0.4,0.1C92.4,10,92.5,10,92.7,9.9z"/>
	<path class="st0" d="M97.8,10.1c-0.4,0.3-0.8,0.6-1.1,0.7S95.9,11,95.5,11c-0.7,0-1.2-0.2-1.6-0.5s-0.6-0.8-0.6-1.3
		c0-0.3,0.1-0.6,0.2-0.8s0.3-0.5,0.5-0.6s0.5-0.3,0.8-0.3c0.2-0.1,0.5-0.1,0.9-0.2c0.9-0.1,1.5-0.2,1.9-0.4c0-0.1,0-0.2,0-0.3
		c0-0.4-0.1-0.7-0.3-0.9c-0.3-0.2-0.7-0.4-1.2-0.4c-0.5,0-0.9,0.1-1.1,0.3s-0.4,0.5-0.5,0.9l-1-0.1C93.7,6,93.8,5.6,94,5.4
		s0.5-0.5,0.9-0.6s0.9-0.2,1.4-0.2c0.5,0,1,0.1,1.3,0.2s0.6,0.3,0.7,0.5s0.3,0.4,0.3,0.7c0,0.2,0.1,0.5,0.1,1v1.4c0,1,0,1.6,0.1,1.9
		s0.1,0.5,0.3,0.7H98C97.9,10.7,97.8,10.4,97.8,10.1z M97.7,7.8c-0.4,0.2-1,0.3-1.7,0.4c-0.4,0.1-0.7,0.1-0.9,0.2s-0.3,0.2-0.4,0.3
		S94.5,9,94.5,9.2c0,0.3,0.1,0.5,0.3,0.7s0.5,0.3,0.9,0.3c0.4,0,0.8-0.1,1.1-0.3s0.5-0.4,0.7-0.7c0.1-0.2,0.2-0.6,0.2-1.1V7.8z"/>
	<path class="st0" d="M100.4,10.9V4.7h0.9v0.9c0.5-0.7,1.1-1,2-1c0.4,0,0.7,0.1,1,0.2s0.5,0.3,0.7,0.5s0.3,0.5,0.3,0.8
		c0,0.2,0.1,0.5,0.1,1v3.8h-1.1V7.1c0-0.4,0-0.8-0.1-1s-0.2-0.4-0.4-0.5s-0.5-0.2-0.7-0.2c-0.4,0-0.8,0.1-1.2,0.4s-0.5,0.8-0.5,1.6
		v3.4H100.4z"/>
	<path class="st0" d="M106.7,7.8c0-1.2,0.3-2,1-2.6c0.5-0.5,1.2-0.7,2-0.7c0.9,0,1.6,0.3,2.1,0.8s0.8,1.3,0.8,2.3
		c0,0.8-0.1,1.4-0.4,1.9s-0.6,0.8-1,1.1s-1,0.4-1.5,0.4c-0.9,0-1.6-0.3-2.1-0.8S106.7,8.8,106.7,7.8z M107.8,7.8
		c0,0.8,0.2,1.4,0.5,1.8s0.8,0.6,1.3,0.6c0.5,0,1-0.2,1.3-0.6s0.5-1,0.5-1.8c0-0.8-0.2-1.4-0.5-1.7s-0.8-0.6-1.3-0.6
		c-0.5,0-1,0.2-1.3,0.6S107.8,7,107.8,7.8z"/>
	<path class="st0" d="M113.3,9l1-0.2c0.1,0.4,0.2,0.7,0.5,1s0.6,0.3,1.1,0.3c0.5,0,0.8-0.1,1.1-0.3s0.4-0.4,0.4-0.7
		c0-0.2-0.1-0.4-0.3-0.6c-0.1-0.1-0.5-0.2-1.1-0.4c-0.8-0.2-1.3-0.4-1.6-0.5s-0.5-0.3-0.7-0.6s-0.2-0.5-0.2-0.8
		c0-0.3,0.1-0.5,0.2-0.8s0.3-0.4,0.5-0.6c0.2-0.1,0.4-0.2,0.7-0.3s0.6-0.1,0.9-0.1c0.5,0,0.9,0.1,1.3,0.2s0.6,0.3,0.8,0.6
		s0.3,0.6,0.4,1l-1,0.1c0-0.3-0.2-0.6-0.4-0.8s-0.5-0.3-1-0.3c-0.5,0-0.8,0.1-1,0.2s-0.3,0.3-0.3,0.6c0,0.1,0,0.3,0.1,0.4
		c0.1,0.1,0.2,0.2,0.4,0.3c0.1,0,0.4,0.1,0.9,0.3c0.7,0.2,1.3,0.4,1.6,0.5s0.5,0.3,0.7,0.6s0.3,0.5,0.3,0.9c0,0.4-0.1,0.7-0.3,1
		s-0.5,0.6-0.9,0.7S116.5,11,116,11c-0.8,0-1.4-0.2-1.8-0.5S113.5,9.7,113.3,9z"/>
	<path class="st0" d="M124.8,10.9l-2.4-6.2h1.1l1.3,3.7c0.1,0.4,0.3,0.8,0.4,1.3c0.1-0.3,0.2-0.7,0.4-1.2l1.4-3.8h1.1l-2.4,6.2
		H124.8z"/>
	<path class="st0" d="M129.4,3.9l0.8-1.6h1.4l-1.3,1.6H129.4z M129.5,10.9V4.7h1.1v6.2H129.5z"/>
	<path class="st0" d="M136.5,10.1c-0.4,0.3-0.8,0.6-1.1,0.7s-0.7,0.2-1.2,0.2c-0.7,0-1.2-0.2-1.6-0.5s-0.6-0.8-0.6-1.3
		c0-0.3,0.1-0.6,0.2-0.8s0.3-0.5,0.5-0.6s0.5-0.3,0.8-0.3c0.2-0.1,0.5-0.1,0.9-0.2c0.9-0.1,1.5-0.2,1.9-0.4c0-0.1,0-0.2,0-0.3
		c0-0.4-0.1-0.7-0.3-0.9c-0.3-0.2-0.7-0.4-1.2-0.4c-0.5,0-0.9,0.1-1.1,0.3s-0.4,0.5-0.5,0.9l-1-0.1c0.1-0.4,0.2-0.8,0.5-1.1
		s0.5-0.5,0.9-0.6s0.9-0.2,1.4-0.2c0.5,0,1,0.1,1.3,0.2s0.6,0.3,0.7,0.5s0.3,0.4,0.3,0.7c0,0.2,0.1,0.5,0.1,1v1.4c0,1,0,1.6,0.1,1.9
		s0.1,0.5,0.3,0.7h-1.1C136.6,10.7,136.5,10.4,136.5,10.1z M136.4,7.8c-0.4,0.2-1,0.3-1.7,0.4c-0.4,0.1-0.7,0.1-0.9,0.2
		s-0.3,0.2-0.4,0.3s-0.1,0.3-0.1,0.5c0,0.3,0.1,0.5,0.3,0.7s0.5,0.3,0.9,0.3c0.4,0,0.8-0.1,1.1-0.3s0.5-0.4,0.7-0.7
		c0.1-0.2,0.2-0.6,0.2-1.1V7.8z"/>
</g>
<g class="st1">
	<path class="st0" d="M54.6,32.9l-2.9-12.2h2.5l1.8,8.4l2.2-8.4h2.9l2.1,8.5l1.9-8.5h2.5l-3,12.2h-2.6l-2.4-9.1l-2.4,9.1H54.6z"/>
	<path class="st0" d="M71.2,20.7v4.5c0.8-0.9,1.7-1.3,2.7-1.3c0.5,0,1,0.1,1.5,0.3s0.8,0.5,1,0.8c0.2,0.3,0.4,0.7,0.4,1
		c0.1,0.4,0.1,1,0.1,1.8v5.2h-2.3v-4.7c0-0.9,0-1.5-0.1-1.8c-0.1-0.2-0.2-0.4-0.5-0.6c-0.2-0.1-0.5-0.2-0.8-0.2
		c-0.4,0-0.7,0.1-1,0.3c-0.3,0.2-0.5,0.5-0.7,0.9c-0.1,0.4-0.2,0.9-0.2,1.7v4.4h-2.3V20.7H71.2z"/>
	<path class="st0" d="M81,26.8l-2.1-0.4c0.2-0.9,0.6-1.5,1.2-1.9s1.4-0.6,2.6-0.6c1,0,1.8,0.1,2.3,0.4c0.5,0.2,0.9,0.6,1.1,0.9
		c0.2,0.4,0.3,1.1,0.3,2.1l0,2.7c0,0.8,0,1.3,0.1,1.7c0.1,0.4,0.2,0.8,0.4,1.2h-2.3c-0.1-0.2-0.1-0.4-0.2-0.7c0-0.1-0.1-0.2-0.1-0.3
		c-0.4,0.4-0.8,0.7-1.3,0.9c-0.5,0.2-0.9,0.3-1.5,0.3c-0.9,0-1.6-0.2-2.1-0.7c-0.5-0.5-0.8-1.1-0.8-1.9c0-0.5,0.1-0.9,0.4-1.3
		c0.2-0.4,0.6-0.7,1-0.9c0.4-0.2,1-0.4,1.9-0.5c1.1-0.2,1.8-0.4,2.3-0.6v-0.2c0-0.4-0.1-0.8-0.3-1c-0.2-0.2-0.6-0.3-1.3-0.3
		c-0.4,0-0.7,0.1-1,0.2S81.1,26.4,81,26.8z M84.1,28.7c-0.3,0.1-0.8,0.2-1.4,0.4c-0.6,0.1-1.1,0.3-1.3,0.4c-0.3,0.2-0.5,0.5-0.5,0.8
		c0,0.3,0.1,0.6,0.4,0.8c0.2,0.2,0.6,0.4,0.9,0.4c0.4,0,0.8-0.1,1.2-0.4c0.3-0.2,0.5-0.5,0.6-0.8c0.1-0.2,0.1-0.6,0.1-1.1V28.7z"/>
	<path class="st0" d="M92.7,24.1v1.9h-1.6v3.6c0,0.7,0,1.1,0,1.3s0.1,0.2,0.2,0.3c0.1,0.1,0.2,0.1,0.4,0.1c0.2,0,0.5-0.1,0.9-0.2
		l0.2,1.8c-0.5,0.2-1.2,0.3-1.8,0.3c-0.4,0-0.8-0.1-1.1-0.2c-0.3-0.1-0.6-0.3-0.7-0.5c-0.2-0.2-0.3-0.5-0.3-0.9
		c0-0.3-0.1-0.8-0.1-1.6v-3.8h-1.1v-1.9h1.1v-1.8l2.3-1.4v3.1H92.7z"/>
	<path class="st0" d="M93.5,30.4l2.3-0.4c0.1,0.5,0.3,0.8,0.6,1c0.3,0.2,0.7,0.4,1.3,0.4c0.6,0,1.1-0.1,1.4-0.3
		c0.2-0.2,0.3-0.4,0.3-0.6c0-0.2-0.1-0.3-0.2-0.4c-0.1-0.1-0.4-0.2-0.8-0.3c-1.9-0.4-3.1-0.8-3.6-1.1c-0.7-0.5-1-1.1-1-2
		c0-0.8,0.3-1.4,0.9-1.9c0.6-0.5,1.5-0.8,2.8-0.8c1.2,0,2.1,0.2,2.7,0.6c0.6,0.4,1,1,1.2,1.7l-2.2,0.4c-0.1-0.3-0.3-0.6-0.5-0.8
		c-0.3-0.2-0.6-0.3-1.1-0.3c-0.6,0-1.1,0.1-1.3,0.3c-0.2,0.1-0.3,0.3-0.3,0.5c0,0.2,0.1,0.3,0.2,0.4c0.2,0.2,0.9,0.4,2.2,0.7
		c1.2,0.3,2.1,0.6,2.6,1c0.5,0.4,0.7,1,0.7,1.7c0,0.8-0.3,1.5-1,2.1c-0.7,0.6-1.7,0.9-3,0.9c-1.2,0-2.2-0.2-2.9-0.7
		S93.8,31.2,93.5,30.4z"/>
	<path class="st0" d="M114.8,32.9h-2.7l-1.1-2.8h-4.9l-1,2.8h-2.6l4.7-12.2h2.6L114.8,32.9z M110.3,28.1l-1.7-4.5l-1.6,4.5H110.3z"
		/>
	<path class="st0" d="M116,24.1h2.2v1.3c0.3-0.4,0.7-0.8,1.1-1.1s1-0.4,1.6-0.4c1,0,1.9,0.4,2.6,1.2c0.7,0.8,1.1,1.9,1.1,3.4
		c0,1.5-0.4,2.6-1.1,3.4c-0.7,0.8-1.6,1.2-2.6,1.2c-0.5,0-0.9-0.1-1.3-0.3c-0.4-0.2-0.8-0.5-1.2-1v4.4H116V24.1z M118.3,28.3
		c0,1,0.2,1.7,0.6,2.2c0.4,0.5,0.9,0.7,1.4,0.7c0.5,0,1-0.2,1.4-0.7c0.4-0.4,0.5-1.1,0.5-2.1c0-0.9-0.2-1.6-0.6-2.1
		c-0.4-0.4-0.8-0.7-1.4-0.7c-0.6,0-1,0.2-1.4,0.7C118.5,26.8,118.3,27.5,118.3,28.3z"/>
	<path class="st0" d="M126.4,24.1h2.2v1.3c0.3-0.4,0.7-0.8,1.1-1.1s1-0.4,1.6-0.4c1,0,1.9,0.4,2.6,1.2c0.7,0.8,1.1,1.9,1.1,3.4
		c0,1.5-0.4,2.6-1.1,3.4c-0.7,0.8-1.6,1.2-2.6,1.2c-0.5,0-0.9-0.1-1.3-0.3c-0.4-0.2-0.8-0.5-1.2-1v4.4h-2.3V24.1z M128.7,28.3
		c0,1,0.2,1.7,0.6,2.2c0.4,0.5,0.9,0.7,1.4,0.7c0.5,0,1-0.2,1.4-0.7c0.4-0.4,0.5-1.1,0.5-2.1c0-0.9-0.2-1.6-0.6-2.1
		c-0.4-0.4-0.8-0.7-1.4-0.7c-0.6,0-1,0.2-1.4,0.7C128.9,26.8,128.7,27.5,128.7,28.3z"/>
</g>
</svg>
